<svg width="30" height="30" viewBox="0 0 30 30" fill="none" xmlns="http://www.w3.org/2000/svg">
<g clip-path="url(#clip0_2_15)">
<rect width="30" height="30" rx="4" fill="white"/>
<path d="M17.1122 0V2.51149L17.25 2.54211C18.6276 2.92496 19.8827 3.66003 20.8929 4.67075L25.2551 9.03522L22.2551 12.0368L17.9847 7.76417C17.1888 6.96784 16.0714 6.50842 14.9082 6.50842C13.7908 6.52374 12.7653 6.95253 12 7.73354C10.4541 9.3415 10.4694 11.9449 12.0612 13.5375L16.4388 17.9173C16.8367 18.3155 17.051 18.8515 17.051 19.4181C17.051 19.9847 16.8367 20.5207 16.4388 20.9188C15.9949 21.3629 15.3827 21.5927 14.7551 21.5314C14.2347 21.4855 13.7602 21.2251 13.3929 20.8576L9.06122 16.5237C7.48469 14.9464 6.61225 12.8484 6.61225 10.5972C6.61225 8.36141 7.48469 6.2634 9.06122 4.67075C10.0867 3.64472 11.3724 2.89433 12.7806 2.51149L12.8878 2.48086V0H0.535714C0.244898 0 0 0.245023 0 0.535988V29.464C0 29.755 0.244898 30 0.535714 30H12.8724L12.8878 27.5038L12.8265 27.4885C11.3878 27.121 10.0714 26.3706 9.03061 25.3139L4.7602 21.0413L7.7602 18.0398L11.9388 22.2358C12.7347 23.0322 13.8367 23.4916 14.9694 23.4916H15C16.1173 23.4763 17.1429 23.0475 17.9082 22.2665C19.4694 20.6585 19.4388 18.0551 17.8622 16.4625L13.4847 12.0827C12.6582 11.2557 12.6582 9.90812 13.4847 9.08117C14.3112 8.25421 15.6582 8.25421 16.4847 9.08117L20.8622 13.4763C22.4388 15.0536 23.3112 17.1516 23.3112 19.4028C23.3112 22.0674 22.0867 24.5329 19.898 26.1562C19.0867 26.7688 18.1531 27.1976 17.1735 27.4732L17.1276 27.4885L17.1122 30.0153H29.4643C29.7551 30.0153 30 29.7703 30 29.4793V0.535988C30 0.245023 29.7551 0 29.4643 0H17.1122Z" fill="#346F7C"/>
</g>
<defs>
<clipPath id="clip0_2_15">
<rect width="30" height="30" rx="4" fill="white"/>
</clipPath>
</defs>
</svg>
