<svg width="112" height="30" viewBox="0 0 112 30" fill="none" xmlns="http://www.w3.org/2000/svg">
<g clip-path="url(#clip0_2_10)">
<g clip-path="url(#clip1_2_10)">
<path d="M17.1122 0V2.51149L17.25 2.54211C18.6276 2.92496 19.8827 3.66003 20.8929 4.67075L25.2551 9.03522L22.2551 12.0368L17.9847 7.76417C17.1888 6.96784 16.0714 6.50842 14.9082 6.50842C13.7908 6.52374 12.7653 6.95253 12 7.73354C10.4541 9.3415 10.4694 11.9449 12.0612 13.5375L16.4388 17.9173C16.8367 18.3155 17.051 18.8515 17.051 19.4181C17.051 19.9847 16.8367 20.5207 16.4388 20.9188C15.9949 21.3629 15.3827 21.5927 14.7551 21.5314C14.2347 21.4855 13.7602 21.2251 13.3929 20.8576L9.06122 16.5237C7.48469 14.9464 6.61225 12.8484 6.61225 10.5972C6.61225 8.36141 7.48469 6.2634 9.06122 4.67075C10.0867 3.64472 11.3724 2.89433 12.7806 2.51149L12.8878 2.48086V0H0.535714C0.244898 0 0 0.245023 0 0.535988V29.464C0 29.755 0.244898 30 0.535714 30H12.8724L12.8878 27.5038L12.8265 27.4885C11.3878 27.121 10.0714 26.3706 9.03061 25.3139L4.7602 21.0413L7.7602 18.0398L11.9388 22.2358C12.7347 23.0322 13.8367 23.4916 14.9694 23.4916H15C16.1173 23.4763 17.1429 23.0475 17.9082 22.2665C19.4694 20.6585 19.4388 18.0551 17.8622 16.4625L13.4847 12.0827C12.6582 11.2557 12.6582 9.90812 13.4847 9.08117C14.3112 8.25421 15.6582 8.25421 16.4847 9.08117L20.8622 13.4763C22.4388 15.0536 23.3112 17.1516 23.3112 19.4028C23.3112 22.0674 22.0867 24.5329 19.898 26.1562C19.0867 26.7688 18.1531 27.1976 17.1735 27.4732L17.1276 27.4885L17.1122 30.0153H29.4643C29.7551 30.0153 30 29.7703 30 29.4793V0.535988C30 0.245023 29.7551 0 29.4643 0H17.1122Z" fill="white"/>
</g>
<path d="M34.6562 1.35156H40.2266V3.88281H37.9453V6.28125H39.9766V8.6875H37.9453V14H34.6562V1.35156ZM48.2675 1.35156V3H45.0175V1.35156H48.2675ZM48.2675 3.63281V14H45.0175V3.63281H48.2675ZM56.6991 3.63281L56.6444 4.58594C56.8735 4.20573 57.1522 3.92188 57.4803 3.73438C57.8136 3.54167 58.1965 3.44531 58.6287 3.44531C59.1704 3.44531 59.6131 3.57292 59.9569 3.82812C60.3006 4.08333 60.522 4.40625 60.6209 4.79688C60.7199 5.18229 60.7694 5.82812 60.7694 6.73438V14H57.6131V6.82031C57.6131 6.10677 57.5897 5.67188 57.5428 5.51562C57.4959 5.35938 57.3657 5.28125 57.1522 5.28125C56.9282 5.28125 56.7876 5.3724 56.7303 5.55469C56.673 5.73177 56.6444 6.21094 56.6444 6.99219V14H53.4881V3.63281H56.6991ZM68.7634 7.64844H65.8025V6.95312C65.8025 6.15104 65.8936 5.53385 66.0759 5.10156C66.2634 4.66406 66.6358 4.27865 67.1931 3.94531C67.7504 3.61198 68.4744 3.44531 69.365 3.44531C70.4327 3.44531 71.2374 3.63542 71.7791 4.01562C72.3207 4.39062 72.6462 4.85417 72.7556 5.40625C72.865 5.95312 72.9197 7.08333 72.9197 8.79688V14H69.8494V13.0781C69.6567 13.4479 69.4067 13.7266 69.0994 13.9141C68.7973 14.0964 68.4353 14.1875 68.0134 14.1875C67.4614 14.1875 66.9535 14.0339 66.49 13.7266C66.0317 13.4141 65.8025 12.7344 65.8025 11.6875V10.8359C65.8025 10.0599 65.9249 9.53125 66.1697 9.25C66.4145 8.96875 67.0212 8.64062 67.99 8.26562C69.0265 7.85938 69.5811 7.58594 69.6541 7.44531C69.727 7.30469 69.7634 7.01823 69.7634 6.58594C69.7634 6.04427 69.7218 5.69271 69.6384 5.53125C69.5603 5.36458 69.4275 5.28125 69.24 5.28125C69.0265 5.28125 68.8936 5.35156 68.8416 5.49219C68.7895 5.6276 68.7634 5.98438 68.7634 6.5625V7.64844ZM69.7634 9.07031C69.2582 9.4401 68.964 9.75 68.8806 10C68.8025 10.25 68.7634 10.6094 68.7634 11.0781C68.7634 11.6146 68.7973 11.9609 68.865 12.1172C68.9379 12.2734 69.0785 12.3516 69.2869 12.3516C69.4848 12.3516 69.6124 12.2917 69.6697 12.1719C69.7322 12.0469 69.7634 11.724 69.7634 11.2031V9.07031ZM81.2966 3.63281L81.2419 4.58594C81.471 4.20573 81.7497 3.92188 82.0778 3.73438C82.4111 3.54167 82.794 3.44531 83.2262 3.44531C83.7679 3.44531 84.2106 3.57292 84.5544 3.82812C84.8981 4.08333 85.1195 4.40625 85.2184 4.79688C85.3174 5.18229 85.3669 5.82812 85.3669 6.73438V14H82.2106V6.82031C82.2106 6.10677 82.1872 5.67188 82.1403 5.51562C82.0934 5.35938 81.9632 5.28125 81.7497 5.28125C81.5257 5.28125 81.3851 5.3724 81.3278 5.55469C81.2705 5.73177 81.2419 6.21094 81.2419 6.99219V14H78.0856V3.63281H81.2966ZM97.5172 7.54688H94.5406V6.35156C94.5406 5.9349 94.5068 5.65365 94.4391 5.50781C94.3714 5.35677 94.2464 5.28125 94.0641 5.28125C93.8818 5.28125 93.7594 5.34635 93.6969 5.47656C93.6344 5.60677 93.6031 5.89844 93.6031 6.35156V11.2422C93.6031 11.612 93.65 11.8906 93.7438 12.0781C93.8375 12.2604 93.9755 12.3516 94.1578 12.3516C94.3714 12.3516 94.5146 12.2552 94.5875 12.0625C94.6656 11.8698 94.7047 11.5052 94.7047 10.9688V9.73438H97.5172C97.512 10.5625 97.4807 11.1849 97.4234 11.6016C97.3714 12.013 97.1969 12.4375 96.9 12.875C96.6083 13.3073 96.2255 13.6354 95.7516 13.8594C95.2776 14.0781 94.6917 14.1875 93.9938 14.1875C93.1031 14.1875 92.3974 14.0365 91.8766 13.7344C91.3557 13.4271 90.9859 13 90.7672 12.4531C90.5536 11.901 90.4469 11.1198 90.4469 10.1094V7.16406C90.4469 6.28385 90.5354 5.61979 90.7125 5.17188C90.8896 4.72396 91.2672 4.32552 91.8453 3.97656C92.4234 3.6224 93.1266 3.44531 93.9547 3.44531C94.7776 3.44531 95.4807 3.61979 96.0641 3.96875C96.6474 4.31771 97.0354 4.75781 97.2281 5.28906C97.4208 5.82031 97.5172 6.57292 97.5172 7.54688ZM109.691 9H105.605V11.2422C105.605 11.7109 105.639 12.013 105.707 12.1484C105.774 12.2839 105.904 12.3516 106.097 12.3516C106.337 12.3516 106.496 12.263 106.574 12.0859C106.657 11.9036 106.699 11.5547 106.699 11.0391V9.67188H109.691V10.4375C109.691 11.0781 109.649 11.5703 109.566 11.9141C109.488 12.2578 109.3 12.625 109.003 13.0156C108.707 13.4062 108.329 13.7005 107.871 13.8984C107.417 14.0911 106.847 14.1875 106.16 14.1875C105.493 14.1875 104.904 14.0911 104.394 13.8984C103.884 13.7057 103.485 13.4427 103.199 13.1094C102.917 12.7708 102.722 12.401 102.613 12C102.503 11.5938 102.449 11.0052 102.449 10.2344V7.21094C102.449 6.30469 102.571 5.59115 102.816 5.07031C103.061 4.54427 103.462 4.14323 104.019 3.86719C104.576 3.58594 105.217 3.44531 105.941 3.44531C106.826 3.44531 107.556 3.61458 108.128 3.95312C108.707 4.28646 109.11 4.73177 109.339 5.28906C109.574 5.84115 109.691 6.61979 109.691 7.625V9ZM106.527 7.3125V6.55469C106.527 6.01823 106.498 5.67188 106.441 5.51562C106.384 5.35938 106.266 5.28125 106.089 5.28125C105.871 5.28125 105.735 5.34896 105.683 5.48438C105.631 5.61458 105.605 5.97135 105.605 6.55469V7.3125H106.527Z" fill="white"/>
<path d="M34.6562 27V19.5938H34.7969L36.4062 23.4531V27H34.6562ZM34.6562 17.1875V16.0625H36.0469L39.3594 24.1094L41.5156 19.2344H41.6719V23.2031L39.9844 27H38.7344L34.6562 17.1875ZM42.4688 27V16.0625H44.2188V27H42.4688ZM49.0081 24.9844C49.0081 25.5677 49.2894 26.0625 49.8519 26.4688C50.3415 26.8229 50.9248 27 51.6019 27V25.4531C50.831 25.4427 50.4404 25.1719 50.43 24.6406V24.3125C50.4404 24.1042 50.5029 23.9583 50.6175 23.875C50.7008 23.8125 51.1904 23.6615 52.0863 23.4219C52.7113 23.2552 53.1488 23.1042 53.3988 22.9688V24.5156C53.3988 25.0156 53.1644 25.3177 52.6956 25.4219C52.6019 25.4427 52.5029 25.4531 52.3988 25.4531V27C53.0863 26.9896 53.6383 26.8125 54.055 26.4688C54.4196 26.8229 54.8779 27 55.43 27V25.4375C55.1592 25.4167 55.0185 25.25 55.0081 24.9375V20.7344C55.0081 20.1094 54.7581 19.5521 54.2581 19.0625C53.7581 18.5729 53.1331 18.3281 52.3831 18.3281V19.8594C52.8519 19.8594 53.1644 20.0521 53.3206 20.4375C53.3727 20.5625 53.3988 20.6927 53.3988 20.8281V21.1562C53.3988 21.4271 52.8258 21.7396 51.68 22.0938C50.5967 22.4271 49.9821 22.6354 49.8363 22.7188C49.2946 23.0417 49.0185 23.5417 49.0081 24.2188V24.9844ZM49.1331 20.5L50.5706 21.0469C50.5706 20.4531 50.7998 20.0781 51.2581 19.9219C51.3727 19.8802 51.4873 19.8594 51.6019 19.8594V18.3281C50.8831 18.3281 50.2633 18.5885 49.7425 19.1094C49.3363 19.526 49.1331 19.9896 49.1331 20.5ZM60.1725 27V20.6875C60.1725 20.1875 60.4017 19.6927 60.86 19.2031C61.4225 18.6198 62.1204 18.3229 62.9538 18.3125V19.9688C62.4746 19.9688 62.1413 20.1562 61.9538 20.5312C61.8913 20.6562 61.86 20.776 61.86 20.8906V27H60.1725ZM63.6413 19.9688V18.3125C64.6308 18.3125 65.4069 18.7135 65.9694 19.5156C66.2715 19.9323 66.4225 20.3229 66.4225 20.6875V27H64.735V20.8906C64.735 20.5781 64.584 20.3281 64.2819 20.1406C64.0944 20.026 63.8808 19.9688 63.6413 19.9688ZM71.1494 24.9844C71.1494 25.5677 71.4306 26.0625 71.9931 26.4688C72.4827 26.8229 73.066 27 73.7431 27V25.4531C72.9723 25.4427 72.5817 25.1719 72.5713 24.6406V24.3125C72.5817 24.1042 72.6442 23.9583 72.7588 23.875C72.8421 23.8125 73.3317 23.6615 74.2275 23.4219C74.8525 23.2552 75.29 23.1042 75.54 22.9688V24.5156C75.54 25.0156 75.3056 25.3177 74.8369 25.4219C74.7431 25.4427 74.6442 25.4531 74.54 25.4531V27C75.2275 26.9896 75.7796 26.8125 76.1963 26.4688C76.5608 26.8229 77.0192 27 77.5713 27V25.4375C77.3004 25.4167 77.1598 25.25 77.1494 24.9375V20.7344C77.1494 20.1094 76.8994 19.5521 76.3994 19.0625C75.8994 18.5729 75.2744 18.3281 74.5244 18.3281V19.8594C74.9931 19.8594 75.3056 20.0521 75.4619 20.4375C75.514 20.5625 75.54 20.6927 75.54 20.8281V21.1562C75.54 21.4271 74.9671 21.7396 73.8213 22.0938C72.7379 22.4271 72.1233 22.6354 71.9775 22.7188C71.4358 23.0417 71.1598 23.5417 71.1494 24.2188V24.9844ZM71.2744 20.5L72.7119 21.0469C72.7119 20.4531 72.941 20.0781 73.3994 19.9219C73.514 19.8802 73.6285 19.8594 73.7431 19.8594V18.3281C73.0244 18.3281 72.4046 18.5885 71.8838 19.1094C71.4775 19.526 71.2744 19.9896 71.2744 20.5ZM82.0794 29.9219L82.47 28.3906H85.4856C85.9752 28.3698 86.3085 28.1667 86.4856 27.7812C86.5273 27.6979 86.5481 27.625 86.5481 27.5625V26.625C86.1315 26.8125 85.7877 26.9115 85.5169 26.9219V25.375C85.9752 25.375 86.2929 25.1979 86.47 24.8438C86.5221 24.7396 86.5481 24.6406 86.5481 24.5469V20.6406C86.5481 20.3594 86.3867 20.1302 86.0638 19.9531C85.8867 19.8594 85.7044 19.8125 85.5169 19.8125V18.2656C85.8815 18.2656 86.2252 18.3646 86.5481 18.5625V18.2656H88.1575V27.5625C88.1575 28.0104 87.9544 28.4792 87.5481 28.9688C87.0169 29.5938 86.3658 29.9115 85.595 29.9219H82.0794ZM82.2356 24.5781V20.5781C82.246 20.0885 82.4648 19.6042 82.8919 19.125C83.4127 18.5625 84.0638 18.276 84.845 18.2656V19.8125C84.3971 19.8125 84.0794 20 83.8919 20.375C83.8398 20.4688 83.8138 20.5521 83.8138 20.625V24.5625C83.8138 24.8333 83.9648 25.0521 84.2669 25.2188C84.444 25.3125 84.6367 25.3594 84.845 25.3594V26.9219C83.8763 26.9115 83.1315 26.5 82.6106 25.6875C82.3606 25.2917 82.2356 24.9219 82.2356 24.5781ZM93.0094 24.6406V20.6719C93.0302 20.1615 93.2646 19.6667 93.7125 19.1875C94.2646 18.6354 94.9313 18.3542 95.7125 18.3438V19.9062C95.3063 19.9062 94.999 20.0885 94.7906 20.4531C94.7177 20.5781 94.6813 20.6927 94.6813 20.7969V21.7344H97.65V20.8125C97.65 20.375 97.4104 20.0885 96.9313 19.9531C96.7958 19.9115 96.6604 19.8906 96.525 19.8906V18.3438C97.2646 18.3438 97.9208 18.599 98.4938 19.1094C98.9729 19.5677 99.2177 20.0833 99.2281 20.6562V23.3438H94.6813V24.6406C94.6813 24.9115 94.8323 25.1354 95.1344 25.3125C95.3219 25.4167 95.525 25.4688 95.7438 25.4688V27C94.775 27 94.0094 26.6094 93.4469 25.8281C93.1552 25.401 93.0094 25.0052 93.0094 24.6406ZM96.525 27V25.4531C97.1292 25.4531 97.5458 25.1979 97.775 24.6875C97.8063 24.6146 97.8323 24.5469 97.8531 24.4844L99.2438 24.9844C99.0563 25.6927 98.6344 26.2396 97.9781 26.625C97.5302 26.875 97.0458 27 96.525 27ZM104.174 27V18.3438H105.861V19.4219C106.153 18.9635 106.59 18.6354 107.174 18.4375C107.445 18.3438 107.71 18.2969 107.971 18.2969H108.377L107.986 19.9375C107.372 19.9479 106.835 20.2448 106.377 20.8281C106.033 21.276 105.861 21.7396 105.861 22.2188V27H104.174Z" fill="white"/>
</g>
<defs>
<clipPath id="clip0_2_10">
<rect width="112" height="30" fill="white"/>
</clipPath>
<clipPath id="clip1_2_10">
<rect width="30" height="30" fill="white"/>
</clipPath>
</defs>
</svg>
