<svg width="112" height="30" viewBox="0 0 112 30" fill="none" xmlns="http://www.w3.org/2000/svg">
<g clip-path="url(#clip0_2_10)">
<g clip-path="url(#clip1_2_10)">
<path d="M18.5058 0C17.7361 0 17.1122 0.623927 17.1122 1.39358V2.37033C17.1122 2.45281 17.1695 2.52422 17.25 2.54211V2.54211C18.6276 2.92496 19.8827 3.66003 20.8929 4.67075L23.7559 7.53522C24.584 8.36377 24.584 9.70667 23.7559 10.5352V10.5352C22.9272 11.3644 21.583 11.3644 20.7543 10.5352L17.9847 7.76417C17.1888 6.96784 16.0714 6.50842 14.9082 6.50842C13.7908 6.52374 12.7653 6.95253 12 7.73354C10.4541 9.3415 10.4694 11.9449 12.0612 13.5375L16.4388 17.9173C16.8367 18.3155 17.051 18.8515 17.051 19.4181C17.051 19.9847 16.8367 20.5207 16.4388 20.9188C15.9949 21.3629 15.3827 21.5927 14.7551 21.5314C14.2347 21.4855 13.7602 21.2251 13.3929 20.8576L9.06122 16.5237C7.48469 14.9464 6.61225 12.8484 6.61225 10.5972C6.61225 8.36141 7.48469 6.2634 9.06122 4.67075C10.0867 3.64472 11.3724 2.89433 12.7806 2.51149V2.51149C12.8441 2.49336 12.8878 2.43536 12.8878 2.36937V1.41417C12.8878 0.633143 12.2547 0 11.4736 0H0.535714C0.244898 0 0 0.245023 0 0.535988V29.464C0 29.755 0.244898 30 0.535714 30H11.4786C12.2498 30 12.8762 29.3774 12.881 28.6062L12.8874 27.567C12.8876 27.5299 12.8625 27.4975 12.8265 27.4885V27.4885C11.3878 27.121 10.0714 26.3706 9.03061 25.3139L6.25807 22.5399C5.43069 21.7121 5.4307 20.3705 6.25807 19.5427V19.5427C7.08711 18.7132 8.43206 18.7145 9.25958 19.5454L11.9388 22.2358C12.7347 23.0322 13.8367 23.4916 14.9694 23.4916H15C16.1173 23.4763 17.1429 23.0475 17.9082 22.2665C19.4694 20.6585 19.4388 18.0551 17.8622 16.4625L13.4847 12.0827C12.6582 11.2557 12.6582 9.90812 13.4847 9.08117C14.3112 8.25421 15.6582 8.25421 16.4847 9.08117L20.8622 13.4763C22.4388 15.0536 23.3112 17.1516 23.3112 19.4028C23.3112 22.0674 22.0867 24.5329 19.898 26.1562C19.0867 26.7688 18.1531 27.1976 17.1735 27.4732V27.4732C17.1461 27.4823 17.1275 27.508 17.1273 27.5369L17.1212 28.5392C17.1162 29.353 17.7746 30.0153 18.5884 30.0153H29.4643C29.7551 30.0153 30 29.7703 30 29.4793V0.535988C30 0.245023 29.7551 0 29.4643 0H18.5058Z" fill="white"/>
</g>
<path d="M36.6406 15.9844V5.0625H42.3281V6.78125H38.3906V9.6875H40.8594V11.4375H38.3906V15.9844H36.6406ZM44.3469 6.14062C44.3469 5.75521 44.5188 5.47917 44.8625 5.3125C44.9979 5.25 45.1333 5.21875 45.2688 5.21875C45.6646 5.21875 45.9458 5.39062 46.1125 5.73438C46.175 5.86979 46.2063 6.00521 46.2063 6.14062C46.2063 6.51562 46.0292 6.78646 45.675 6.95312C45.5396 7.01562 45.4042 7.04688 45.2688 7.04688C44.8938 7.04688 44.6177 6.88021 44.4406 6.54688C44.3781 6.42188 44.3469 6.28646 44.3469 6.14062ZM44.4563 16V7.67188H46.1281V16H44.4563ZM48.3344 16V9.6875C48.3344 9.1875 48.5635 8.69271 49.0219 8.20312C49.5844 7.61979 50.2823 7.32292 51.1156 7.3125V8.96875C50.6365 8.96875 50.3031 9.15625 50.1156 9.53125C50.0531 9.65625 50.0219 9.77604 50.0219 9.89062V16H48.3344ZM51.8031 8.96875V7.3125C52.7927 7.3125 53.5688 7.71354 54.1313 8.51562C54.4333 8.93229 54.5844 9.32292 54.5844 9.6875V16H52.8969V9.89062C52.8969 9.57812 52.7458 9.32812 52.4438 9.14062C52.2563 9.02604 52.0427 8.96875 51.8031 8.96875ZM56.4312 13.9844C56.4312 14.5677 56.7125 15.0625 57.275 15.4688C57.7646 15.8229 58.3479 16 59.025 16V14.4531C58.2542 14.4427 57.8635 14.1719 57.8531 13.6406V13.3125C57.8635 13.1042 57.926 12.9583 58.0406 12.875C58.124 12.8125 58.6135 12.6615 59.5094 12.4219C60.1344 12.2552 60.5719 12.1042 60.8219 11.9688V13.5156C60.8219 14.0156 60.5875 14.3177 60.1187 14.4219C60.025 14.4427 59.926 14.4531 59.8219 14.4531V16C60.5094 15.9896 61.0615 15.8125 61.4781 15.4688C61.8427 15.8229 62.301 16 62.8531 16V14.4375C62.5823 14.4167 62.4417 14.25 62.4312 13.9375V9.73438C62.4312 9.10938 62.1812 8.55208 61.6812 8.0625C61.1812 7.57292 60.5562 7.32812 59.8062 7.32812V8.85938C60.275 8.85938 60.5875 9.05208 60.7437 9.4375C60.7958 9.5625 60.8219 9.69271 60.8219 9.82812V10.1562C60.8219 10.4271 60.249 10.7396 59.1031 11.0938C58.0198 11.4271 57.4052 11.6354 57.2594 11.7188C56.7177 12.0417 56.4417 12.5417 56.4312 13.2188V13.9844ZM56.5562 9.5L57.9937 10.0469C57.9937 9.45312 58.2229 9.07812 58.6812 8.92188C58.7958 8.88021 58.9104 8.85938 59.025 8.85938V7.32812C58.3062 7.32812 57.6865 7.58854 57.1656 8.10938C56.7594 8.52604 56.5562 8.98958 56.5562 9.5ZM64.7156 16V9.6875C64.7156 9.1875 64.9448 8.69271 65.4031 8.20312C65.9656 7.61979 66.6635 7.32292 67.4969 7.3125V8.96875C67.0177 8.96875 66.6844 9.15625 66.4969 9.53125C66.4344 9.65625 66.4031 9.77604 66.4031 9.89062V16H64.7156ZM68.1844 8.96875V7.3125C69.174 7.3125 69.95 7.71354 70.5125 8.51562C70.8146 8.93229 70.9656 9.32292 70.9656 9.6875V16H69.2781V9.89062C69.2781 9.57812 69.1271 9.32812 68.825 9.14062C68.6375 9.02604 68.424 8.96875 68.1844 8.96875ZM72.9531 13.6406C72.9531 14.1823 73.1667 14.6875 73.5938 15.1562C74.1146 15.7188 74.8021 16 75.6562 16V14.4062C75.1146 14.4062 74.776 14.224 74.6406 13.8594C74.6094 13.7865 74.5938 13.7135 74.5938 13.6406V9.71875C74.5938 9.4375 74.7448 9.21875 75.0469 9.0625C75.224 8.96875 75.4271 8.92188 75.6562 8.92188V7.34375C74.6354 7.34375 73.8646 7.75 73.3438 8.5625C73.0938 8.94792 72.9635 9.32292 72.9531 9.6875V13.6406ZM76.3594 8.9375C76.8594 8.9375 77.1615 9.17188 77.2656 9.64062C77.2865 9.72396 77.2969 9.80729 77.2969 9.89062V10.3281L78.8281 9.75C78.8281 8.97917 78.5156 8.34896 77.8906 7.85938C77.4323 7.51562 76.9219 7.34375 76.3594 7.34375V8.9375ZM76.3594 16.0156C77.099 16.0365 77.75 15.7604 78.3125 15.1875C78.7812 14.7083 79.0156 14.1771 79.0156 13.5938L77.4844 13.0156V13.4375C77.4323 14.0833 77.0573 14.4115 76.3594 14.4219V16.0156ZM80.7687 13.6406V9.67188C80.7896 9.16146 81.024 8.66667 81.4719 8.1875C82.024 7.63542 82.6906 7.35417 83.4719 7.34375V8.90625C83.0656 8.90625 82.7583 9.08854 82.55 9.45312C82.4771 9.57812 82.4406 9.69271 82.4406 9.79688V10.7344H85.4094V9.8125C85.4094 9.375 85.1698 9.08854 84.6906 8.95312C84.5552 8.91146 84.4198 8.89062 84.2844 8.89062V7.34375C85.024 7.34375 85.6802 7.59896 86.2531 8.10938C86.7323 8.56771 86.9771 9.08333 86.9875 9.65625V12.3438H82.4406V13.6406C82.4406 13.9115 82.5917 14.1354 82.8937 14.3125C83.0812 14.4167 83.2844 14.4688 83.5031 14.4688V16C82.5344 16 81.7687 15.6094 81.2062 14.8281C80.9146 14.401 80.7687 14.0052 80.7687 13.6406ZM84.2844 16V14.4531C84.8885 14.4531 85.3052 14.1979 85.5344 13.6875C85.5656 13.6146 85.5917 13.5469 85.6125 13.4844L87.0031 13.9844C86.8156 14.6927 86.3937 15.2396 85.7375 15.625C85.2896 15.875 84.8052 16 84.2844 16Z" fill="white"/>
<path d="M36.6562 26V18.5938H36.7969L38.4062 22.4531V26H36.6562ZM36.6562 16.1875V15.0625H38.0469L41.3594 23.1094L43.5156 18.2344H43.6719V22.2031L41.9844 26H40.7344L36.6562 16.1875ZM44.4688 26V15.0625H46.2188V26H44.4688ZM51.0081 23.9844C51.0081 24.5677 51.2894 25.0625 51.8519 25.4688C52.3415 25.8229 52.9248 26 53.6019 26V24.4531C52.831 24.4427 52.4404 24.1719 52.43 23.6406V23.3125C52.4404 23.1042 52.5029 22.9583 52.6175 22.875C52.7008 22.8125 53.1904 22.6615 54.0863 22.4219C54.7113 22.2552 55.1488 22.1042 55.3988 21.9688V23.5156C55.3988 24.0156 55.1644 24.3177 54.6956 24.4219C54.6019 24.4427 54.5029 24.4531 54.3988 24.4531V26C55.0863 25.9896 55.6383 25.8125 56.055 25.4688C56.4196 25.8229 56.8779 26 57.43 26V24.4375C57.1592 24.4167 57.0185 24.25 57.0081 23.9375V19.7344C57.0081 19.1094 56.7581 18.5521 56.2581 18.0625C55.7581 17.5729 55.1331 17.3281 54.3831 17.3281V18.8594C54.8519 18.8594 55.1644 19.0521 55.3206 19.4375C55.3727 19.5625 55.3988 19.6927 55.3988 19.8281V20.1562C55.3988 20.4271 54.8258 20.7396 53.68 21.0938C52.5967 21.4271 51.9821 21.6354 51.8363 21.7188C51.2946 22.0417 51.0185 22.5417 51.0081 23.2188V23.9844ZM51.1331 19.5L52.5706 20.0469C52.5706 19.4531 52.7998 19.0781 53.2581 18.9219C53.3727 18.8802 53.4873 18.8594 53.6019 18.8594V17.3281C52.8831 17.3281 52.2633 17.5885 51.7425 18.1094C51.3363 18.526 51.1331 18.9896 51.1331 19.5ZM62.1725 26V19.6875C62.1725 19.1875 62.4017 18.6927 62.86 18.2031C63.4225 17.6198 64.1204 17.3229 64.9538 17.3125V18.9688C64.4746 18.9688 64.1413 19.1562 63.9538 19.5312C63.8913 19.6562 63.86 19.776 63.86 19.8906V26H62.1725ZM65.6413 18.9688V17.3125C66.6308 17.3125 67.4069 17.7135 67.9694 18.5156C68.2715 18.9323 68.4225 19.3229 68.4225 19.6875V26H66.735V19.8906C66.735 19.5781 66.584 19.3281 66.2819 19.1406C66.0944 19.026 65.8808 18.9688 65.6413 18.9688ZM73.1494 23.9844C73.1494 24.5677 73.4306 25.0625 73.9931 25.4688C74.4827 25.8229 75.066 26 75.7431 26V24.4531C74.9723 24.4427 74.5817 24.1719 74.5713 23.6406V23.3125C74.5817 23.1042 74.6442 22.9583 74.7588 22.875C74.8421 22.8125 75.3317 22.6615 76.2275 22.4219C76.8525 22.2552 77.29 22.1042 77.54 21.9688V23.5156C77.54 24.0156 77.3056 24.3177 76.8369 24.4219C76.7431 24.4427 76.6442 24.4531 76.54 24.4531V26C77.2275 25.9896 77.7796 25.8125 78.1963 25.4688C78.5608 25.8229 79.0192 26 79.5713 26V24.4375C79.3004 24.4167 79.1598 24.25 79.1494 23.9375V19.7344C79.1494 19.1094 78.8994 18.5521 78.3994 18.0625C77.8994 17.5729 77.2744 17.3281 76.5244 17.3281V18.8594C76.9931 18.8594 77.3056 19.0521 77.4619 19.4375C77.514 19.5625 77.54 19.6927 77.54 19.8281V20.1562C77.54 20.4271 76.9671 20.7396 75.8213 21.0938C74.7379 21.4271 74.1233 21.6354 73.9775 21.7188C73.4358 22.0417 73.1598 22.5417 73.1494 23.2188V23.9844ZM73.2744 19.5L74.7119 20.0469C74.7119 19.4531 74.941 19.0781 75.3994 18.9219C75.514 18.8802 75.6285 18.8594 75.7431 18.8594V17.3281C75.0244 17.3281 74.4046 17.5885 73.8838 18.1094C73.4775 18.526 73.2744 18.9896 73.2744 19.5ZM84.0794 28.9219L84.47 27.3906H87.4856C87.9752 27.3698 88.3085 27.1667 88.4856 26.7812C88.5273 26.6979 88.5481 26.625 88.5481 26.5625V25.625C88.1315 25.8125 87.7877 25.9115 87.5169 25.9219V24.375C87.9752 24.375 88.2929 24.1979 88.47 23.8438C88.5221 23.7396 88.5481 23.6406 88.5481 23.5469V19.6406C88.5481 19.3594 88.3867 19.1302 88.0638 18.9531C87.8867 18.8594 87.7044 18.8125 87.5169 18.8125V17.2656C87.8815 17.2656 88.2252 17.3646 88.5481 17.5625V17.2656H90.1575V26.5625C90.1575 27.0104 89.9544 27.4792 89.5481 27.9688C89.0169 28.5938 88.3658 28.9115 87.595 28.9219H84.0794ZM84.2356 23.5781V19.5781C84.246 19.0885 84.4648 18.6042 84.8919 18.125C85.4127 17.5625 86.0638 17.276 86.845 17.2656V18.8125C86.3971 18.8125 86.0794 19 85.8919 19.375C85.8398 19.4688 85.8138 19.5521 85.8138 19.625V23.5625C85.8138 23.8333 85.9648 24.0521 86.2669 24.2188C86.444 24.3125 86.6367 24.3594 86.845 24.3594V25.9219C85.8763 25.9115 85.1315 25.5 84.6106 24.6875C84.3606 24.2917 84.2356 23.9219 84.2356 23.5781ZM95.0094 23.6406V19.6719C95.0302 19.1615 95.2646 18.6667 95.7125 18.1875C96.2646 17.6354 96.9313 17.3542 97.7125 17.3438V18.9062C97.3063 18.9062 96.999 19.0885 96.7906 19.4531C96.7177 19.5781 96.6813 19.6927 96.6813 19.7969V20.7344H99.65V19.8125C99.65 19.375 99.4104 19.0885 98.9313 18.9531C98.7958 18.9115 98.6604 18.8906 98.525 18.8906V17.3438C99.2646 17.3438 99.9208 17.599 100.494 18.1094C100.973 18.5677 101.218 19.0833 101.228 19.6562V22.3438H96.6813V23.6406C96.6813 23.9115 96.8323 24.1354 97.1344 24.3125C97.3219 24.4167 97.525 24.4688 97.7438 24.4688V26C96.775 26 96.0094 25.6094 95.4469 24.8281C95.1552 24.401 95.0094 24.0052 95.0094 23.6406ZM98.525 26V24.4531C99.1292 24.4531 99.5458 24.1979 99.775 23.6875C99.8063 23.6146 99.8323 23.5469 99.8531 23.4844L101.244 23.9844C101.056 24.6927 100.634 25.2396 99.9781 25.625C99.5302 25.875 99.0458 26 98.525 26ZM106.174 26V17.3438H107.861V18.4219C108.153 17.9635 108.59 17.6354 109.174 17.4375C109.445 17.3438 109.71 17.2969 109.971 17.2969H110.377L109.986 18.9375C109.372 18.9479 108.835 19.2448 108.377 19.8281C108.033 20.276 107.861 20.7396 107.861 21.2188V26H106.174Z" fill="white"/>
</g>
<defs>
<clipPath id="clip0_2_10">
<rect width="112" height="30" fill="white"/>
</clipPath>
<clipPath id="clip1_2_10">
<rect width="30" height="30" rx="4" fill="white"/>
</clipPath>
</defs>
</svg>
