<svg width="84" height="30" viewBox="0 0 84 30" fill="none" xmlns="http://www.w3.org/2000/svg">
<g clip-path="url(#clip0_1_8)">
<path d="M17.1122 0V2.51149L17.25 2.54211C18.6276 2.92496 19.8827 3.66003 20.8929 4.67075L25.2551 9.03522L22.2551 12.0368L17.9847 7.76417C17.1888 6.96784 16.0714 6.50842 14.9082 6.50842C13.7908 6.52374 12.7653 6.95253 12 7.73354C10.4541 9.3415 10.4694 11.9449 12.0612 13.5375L16.4388 17.9173C16.8367 18.3155 17.051 18.8515 17.051 19.4181C17.051 19.9847 16.8367 20.5207 16.4388 20.9188C15.9949 21.3629 15.3827 21.5927 14.7551 21.5314C14.2347 21.4855 13.7602 21.2251 13.3929 20.8576L9.06122 16.5237C7.48469 14.9464 6.61225 12.8484 6.61225 10.5972C6.61225 8.36141 7.48469 6.2634 9.06122 4.67075C10.0867 3.64472 11.3724 2.89433 12.7806 2.51149L12.8878 2.48086V0H0.535714C0.244898 0 0 0.245023 0 0.535988V29.464C0 29.755 0.244898 30 0.535714 30H12.8724L12.8878 27.5038L12.8265 27.4885C11.3878 27.121 10.0714 26.3706 9.03061 25.3139L4.7602 21.0413L7.7602 18.0398L11.9388 22.2358C12.7347 23.0322 13.8367 23.4916 14.9694 23.4916H15C16.1173 23.4763 17.1429 23.0475 17.9082 22.2665C19.4694 20.6585 19.4388 18.0551 17.8622 16.4625L13.4847 12.0827C12.6582 11.2557 12.6582 9.90812 13.4847 9.08117C14.3112 8.25421 15.6582 8.25421 16.4847 9.08117L20.8622 13.4763C22.4388 15.0536 23.3112 17.1516 23.3112 19.4028C23.3112 22.0674 22.0867 24.5329 19.898 26.1562C19.0867 26.7688 18.1531 27.1976 17.1735 27.4732L17.1276 27.4885L17.1122 30.0153H29.4643C29.7551 30.0153 30 29.7703 30 29.4793V0.535988C30 0.245023 29.7551 0 29.4643 0H17.1122Z" fill="#346F7C"/>
</g>
<path d="M36.4922 3.51367H40.6699V5.41211H38.959V7.21094H40.4824V9.01562H38.959V13H36.4922V3.51367ZM44.7806 3.51367V4.75H42.3431V3.51367H44.7806ZM44.7806 5.22461V13H42.3431V5.22461H44.7806ZM49.1843 5.22461L49.1433 5.93945C49.3152 5.6543 49.5241 5.44141 49.7702 5.30078C50.0202 5.15625 50.3073 5.08398 50.6316 5.08398C51.0378 5.08398 51.3698 5.17969 51.6277 5.37109C51.8855 5.5625 52.0515 5.80469 52.1257 6.09766C52.1999 6.38672 52.237 6.87109 52.237 7.55078V13H49.8698V7.61523C49.8698 7.08008 49.8523 6.75391 49.8171 6.63672C49.782 6.51953 49.6843 6.46094 49.5241 6.46094C49.3562 6.46094 49.2507 6.5293 49.2077 6.66602C49.1648 6.79883 49.1433 7.1582 49.1433 7.74414V13H46.7761V5.22461H49.1843ZM56.3126 8.23633H54.0919V7.71484C54.0919 7.11328 54.1602 6.65039 54.297 6.32617C54.4376 5.99805 54.7169 5.70898 55.1348 5.45898C55.5528 5.20898 56.0958 5.08398 56.7638 5.08398C57.5645 5.08398 58.168 5.22656 58.5743 5.51172C58.9805 5.79297 59.2247 6.14062 59.3067 6.55469C59.3888 6.96484 59.4298 7.8125 59.4298 9.09766V13H57.127V12.3086C56.9825 12.5859 56.795 12.7949 56.5645 12.9355C56.338 13.0723 56.0665 13.1406 55.7501 13.1406C55.336 13.1406 54.9552 13.0254 54.6075 12.7949C54.2638 12.5605 54.0919 12.0508 54.0919 11.2656V10.627C54.0919 10.0449 54.1837 9.64844 54.3673 9.4375C54.5509 9.22656 55.0059 8.98047 55.7325 8.69922C56.5098 8.39453 56.9259 8.18945 56.9805 8.08398C57.0352 7.97852 57.0626 7.76367 57.0626 7.43945C57.0626 7.0332 57.0313 6.76953 56.9688 6.64844C56.9102 6.52344 56.8106 6.46094 56.67 6.46094C56.5098 6.46094 56.4102 6.51367 56.3712 6.61914C56.3321 6.7207 56.3126 6.98828 56.3126 7.42188V8.23633ZM57.0626 9.30273C56.6837 9.58008 56.463 9.8125 56.4005 10C56.3419 10.1875 56.3126 10.457 56.3126 10.8086C56.3126 11.2109 56.338 11.4707 56.3888 11.5879C56.4434 11.7051 56.5489 11.7637 56.7052 11.7637C56.8536 11.7637 56.9493 11.7188 56.9923 11.6289C57.0391 11.5352 57.0626 11.293 57.0626 10.9023V9.30273ZM63.7924 5.22461L63.7514 5.93945C63.9233 5.6543 64.1323 5.44141 64.3784 5.30078C64.6284 5.15625 64.9155 5.08398 65.2397 5.08398C65.6459 5.08398 65.978 5.17969 66.2358 5.37109C66.4936 5.5625 66.6596 5.80469 66.7338 6.09766C66.808 6.38672 66.8452 6.87109 66.8452 7.55078V13H64.478V7.61523C64.478 7.08008 64.4604 6.75391 64.4252 6.63672C64.3901 6.51953 64.2924 6.46094 64.1323 6.46094C63.9643 6.46094 63.8588 6.5293 63.8159 6.66602C63.7729 6.79883 63.7514 7.1582 63.7514 7.74414V13H61.3842V5.22461H63.7924ZM74.0379 8.16016H71.8055V7.26367C71.8055 6.95117 71.7801 6.74023 71.7293 6.63086C71.6785 6.51758 71.5848 6.46094 71.448 6.46094C71.3113 6.46094 71.2195 6.50977 71.1727 6.60742C71.1258 6.70508 71.1023 6.92383 71.1023 7.26367V10.9316C71.1023 11.209 71.1375 11.418 71.2078 11.5586C71.2781 11.6953 71.3816 11.7637 71.5184 11.7637C71.6785 11.7637 71.7859 11.6914 71.8406 11.5469C71.8992 11.4023 71.9285 11.1289 71.9285 10.7266V9.80078H74.0379C74.034 10.4219 74.0105 10.8887 73.9676 11.2012C73.9285 11.5098 73.7977 11.8281 73.575 12.1562C73.3563 12.4805 73.0691 12.7266 72.7137 12.8945C72.3582 13.0586 71.9188 13.1406 71.3953 13.1406C70.7273 13.1406 70.198 13.0273 69.8074 12.8008C69.4168 12.5703 69.1395 12.25 68.9754 11.8398C68.8152 11.4258 68.7352 10.8398 68.7352 10.082V7.87305C68.7352 7.21289 68.8016 6.71484 68.9344 6.37891C69.0672 6.04297 69.3504 5.74414 69.784 5.48242C70.2176 5.2168 70.7449 5.08398 71.366 5.08398C71.9832 5.08398 72.5105 5.21484 72.948 5.47656C73.3855 5.73828 73.6766 6.06836 73.8211 6.4668C73.9656 6.86523 74.0379 7.42969 74.0379 8.16016ZM81.2482 9.25H78.1838V10.9316C78.1838 11.2832 78.2091 11.5098 78.2599 11.6113C78.3107 11.7129 78.4084 11.7637 78.5529 11.7637C78.7326 11.7637 78.8517 11.6973 78.9103 11.5645C78.9728 11.4277 79.0041 11.166 79.0041 10.7793V9.75391H81.2482V10.3281C81.2482 10.8086 81.217 11.1777 81.1545 11.4355C81.0959 11.6934 80.9552 11.9688 80.7326 12.2617C80.5099 12.5547 80.2267 12.7754 79.883 12.9238C79.5431 13.0684 79.1154 13.1406 78.5998 13.1406C78.0998 13.1406 77.6584 13.0684 77.2755 12.9238C76.8927 12.7793 76.5939 12.582 76.3791 12.332C76.1681 12.0781 76.0216 11.8008 75.9396 11.5C75.8576 11.1953 75.8166 10.7539 75.8166 10.1758V7.9082C75.8166 7.22852 75.9084 6.69336 76.092 6.30273C76.2755 5.9082 76.5763 5.60742 76.9943 5.40039C77.4123 5.18945 77.8927 5.08398 78.4357 5.08398C79.0998 5.08398 79.6466 5.21094 80.0763 5.46484C80.5099 5.71484 80.8127 6.04883 80.9845 6.4668C81.1603 6.88086 81.2482 7.46484 81.2482 8.21875V9.25ZM78.8752 7.98438V7.41602C78.8752 7.01367 78.8537 6.75391 78.8107 6.63672C78.7677 6.51953 78.6798 6.46094 78.547 6.46094C78.383 6.46094 78.2814 6.51172 78.2423 6.61328C78.2033 6.71094 78.1838 6.97852 78.1838 7.41602V7.98438H78.8752Z" fill="#346F7C"/>
<path d="M36.5742 26V19.5195H36.6973L38.1055 22.8965V26H36.5742ZM36.5742 17.4141V16.4297H37.791L40.6895 23.4707L42.5762 19.2051H42.7129V22.6777L41.2363 26H40.1426L36.5742 17.4141ZM43.4102 26V16.4297H44.9414V26H43.4102ZM46.1221 24.2363C46.1221 24.7467 46.3682 25.1797 46.8604 25.5352C47.2888 25.8451 47.7992 26 48.3916 26V24.6465C47.7172 24.6374 47.3754 24.4004 47.3663 23.9355V23.6484C47.3754 23.4661 47.4301 23.3385 47.5303 23.2656C47.6032 23.2109 48.0316 23.0788 48.8155 22.8691C49.3623 22.7233 49.7452 22.5911 49.9639 22.4727V23.8262C49.9639 24.2637 49.7588 24.528 49.3487 24.6191C49.2666 24.6374 49.1801 24.6465 49.0889 24.6465V26C49.6905 25.9909 50.1735 25.8359 50.5381 25.5352C50.8571 25.8451 51.2582 26 51.7413 26V24.6328C51.5043 24.6146 51.3812 24.4688 51.3721 24.1953V20.5176C51.3721 19.9707 51.1534 19.4831 50.7159 19.0547C50.2784 18.6263 49.7315 18.4121 49.0752 18.4121V19.752C49.4854 19.752 49.7588 19.9206 49.8955 20.2578C49.9411 20.3672 49.9639 20.4811 49.9639 20.5996V20.8867C49.9639 21.1237 49.4626 21.3971 48.46 21.707C47.5121 21.9987 46.9743 22.181 46.8467 22.2539C46.3728 22.5365 46.1312 22.974 46.1221 23.5664V24.2363ZM46.2315 20.3125L47.4893 20.791C47.4893 20.2715 47.6898 19.9434 48.0909 19.8066C48.1911 19.7702 48.2914 19.752 48.3916 19.752V18.4121C47.7627 18.4121 47.2204 18.64 46.7647 19.0957C46.4092 19.4603 46.2315 19.8659 46.2315 20.3125ZM52.8809 26V20.4766C52.8809 20.0391 53.0815 19.6061 53.4825 19.1777C53.9747 18.6673 54.5854 18.4076 55.3145 18.3984V19.8477C54.8953 19.8477 54.6036 20.0117 54.4395 20.3398C54.3848 20.4492 54.3575 20.554 54.3575 20.6543V26H52.8809ZM55.9161 19.8477V18.3984C56.782 18.3984 57.461 18.7493 57.9532 19.4512C58.2175 19.8158 58.3497 20.1576 58.3497 20.4766V26H56.8731V20.6543C56.8731 20.3809 56.741 20.1621 56.4766 19.998C56.3126 19.8978 56.1257 19.8477 55.9161 19.8477ZM59.4757 24.2363C59.4757 24.7467 59.7218 25.1797 60.214 25.5352C60.6424 25.8451 61.1528 26 61.7452 26V24.6465C61.0708 24.6374 60.729 24.4004 60.7198 23.9355V23.6484C60.729 23.4661 60.7836 23.3385 60.8839 23.2656C60.9568 23.2109 61.3852 23.0788 62.1691 22.8691C62.7159 22.7233 63.0987 22.5911 63.3175 22.4727V23.8262C63.3175 24.2637 63.1124 24.528 62.7023 24.6191C62.6202 24.6374 62.5336 24.6465 62.4425 24.6465V26C63.0441 25.9909 63.5271 25.8359 63.8917 25.5352C64.2107 25.8451 64.6118 26 65.0948 26V24.6328C64.8579 24.6146 64.7348 24.4688 64.7257 24.1953V20.5176C64.7257 19.9707 64.507 19.4831 64.0695 19.0547C63.632 18.6263 63.0851 18.4121 62.4288 18.4121V19.752C62.839 19.752 63.1124 19.9206 63.2491 20.2578C63.2947 20.3672 63.3175 20.4811 63.3175 20.5996V20.8867C63.3175 21.1237 62.8162 21.3971 61.8136 21.707C60.8657 21.9987 60.3279 22.181 60.2003 22.2539C59.7264 22.5365 59.4848 22.974 59.4757 23.5664V24.2363ZM59.5851 20.3125L60.8429 20.791C60.8429 20.2715 61.0434 19.9434 61.4445 19.8066C61.5447 19.7702 61.645 19.752 61.7452 19.752V18.4121C61.1163 18.4121 60.574 18.64 60.1183 19.0957C59.7628 19.4603 59.5851 19.8659 59.5851 20.3125ZM66.0295 28.5566L66.3713 27.2168H69.0099C69.4383 27.1986 69.73 27.0208 69.8849 26.6836C69.9214 26.6107 69.9396 26.5469 69.9396 26.4922V25.6719C69.575 25.8359 69.2742 25.9225 69.0373 25.9316V24.5781C69.4383 24.5781 69.7163 24.4232 69.8713 24.1133C69.9168 24.0221 69.9396 23.9355 69.9396 23.8535V20.4355C69.9396 20.1895 69.7983 19.9889 69.5158 19.834C69.3608 19.752 69.2013 19.7109 69.0373 19.7109V18.3574C69.3563 18.3574 69.6571 18.444 69.9396 18.6172V18.3574H71.3478V26.4922C71.3478 26.8841 71.1701 27.2943 70.8146 27.7227C70.3498 28.2695 69.7801 28.5475 69.1056 28.5566H66.0295ZM66.1662 23.8809V20.3809C66.1753 19.9525 66.3667 19.5286 66.7404 19.1094C67.1961 18.6172 67.7658 18.3665 68.4494 18.3574V19.7109C68.0574 19.7109 67.7795 19.875 67.6154 20.2031C67.5698 20.2852 67.547 20.3581 67.547 20.4219V23.8672C67.547 24.1042 67.6792 24.2956 67.9435 24.4414C68.0985 24.5234 68.2671 24.5645 68.4494 24.5645V25.9316C67.6017 25.9225 66.95 25.5625 66.4943 24.8516C66.2755 24.5052 66.1662 24.1816 66.1662 23.8809ZM72.5832 23.9355V20.4629C72.6014 20.0163 72.8065 19.5833 73.1984 19.1641C73.6815 18.681 74.2648 18.4349 74.9484 18.4258V19.793C74.593 19.793 74.3241 19.9525 74.1418 20.2715C74.078 20.3809 74.0461 20.4811 74.0461 20.5723V21.3926H76.6437V20.5859C76.6437 20.2031 76.4341 19.9525 76.0148 19.834C75.8964 19.7975 75.7779 19.7793 75.6594 19.7793V18.4258C76.3065 18.4258 76.8807 18.6491 77.382 19.0957C77.8013 19.4967 78.0155 19.9479 78.0246 20.4492V22.8008H74.0461V23.9355C74.0461 24.1725 74.1783 24.3685 74.4426 24.5234C74.6066 24.6146 74.7844 24.6602 74.9758 24.6602V26C74.1281 26 73.4582 25.6582 72.966 24.9746C72.7108 24.6009 72.5832 24.2546 72.5832 23.9355ZM75.6594 26V24.6465C76.188 24.6465 76.5526 24.4232 76.7531 23.9766C76.7805 23.9128 76.8033 23.8535 76.8215 23.7988L78.0383 24.2363C77.8742 24.8561 77.5051 25.3346 76.9309 25.6719C76.5389 25.8906 76.1151 26 75.6594 26ZM79.342 26V18.4258H80.8186V19.3691C81.0738 18.9681 81.4566 18.681 81.967 18.5078C82.204 18.4258 82.4364 18.3848 82.6643 18.3848H83.0198L82.678 19.8203C82.1402 19.8294 81.6708 20.0892 81.2698 20.5996C80.969 20.9915 80.8186 21.3971 80.8186 21.8164V26H79.342Z" fill="#346F7C"/>
<defs>
<clipPath id="clip0_1_8">
<rect width="30" height="30" fill="white"/>
</clipPath>
</defs>
</svg>
